<svg version="1" xmlns="http://www.w3.org/2000/svg" width="666.667" height="666.667" viewBox="0 0 500.000000 500.000000"><path d="M415.6 32.6c-1.4 2-2.5 2.5-4.7 2.2-3.3-.5-3.5-.1-1.4 3 1.1 1.5 1.4 3.3.9 5.7l-.6 3.5 3-1.1c2.4-.8 3.6-.7 5.5.5 2.7 1.8 3.7 1.3 3.7-2.1 0-1.4 1.2-3.4 2.7-4.7l2.7-2.4-3.3-.7c-2.4-.5-3.5-1.5-4.3-3.6-1.2-3.5-1.8-3.6-4.2-.3zM371.1 42.1c-1.2 4-2 4.6-9.5 7.3-1.7.6-1.6.8 1 2.8 4.6 3.6 4.9 4.1 5.1 8.7.1 2.4.5 4.6.7 4.9.3.3 2.1-.7 4.1-2.2 3.4-2.6 3.5-2.7 8.5-1.2l5 1.5-.6-2.7c-.4-1.5-1-3.6-1.4-4.7-.5-1.4.1-3.3 2.2-6.3 1.9-2.7 2.4-4.2 1.6-4.3-.7 0-3-.2-5.1-.3-2-.2-3.9-.5-4-.7-.2-.2-1.4-1.9-2.6-3.7-1.2-1.7-2.6-3.2-3-3.2-.4 0-1.3 1.8-2 4.1zM365.6 85.5c-.9 2.1-1.6 4.1-1.6 4.5 0 2.3-4.4 12-5.7 12.5-1 .3-4.5-1.7-9-5.1-4.1-3-7.6-5.4-7.8-5.2-.4.4-44.7 58.6-58.5 76.8-6.3 8.4-11.9 15.8-12.5 16.4-.5.6-5 6.5-10 13.1-4.9 6.6-9.2 12.2-9.5 12.5-.3.3-2.5 3.2-5 6.5s-8.2 10.7-12.6 16.5c-4.4 5.8-14.5 19-22.4 29.5-8 10.4-15 19.7-15.7 20.5-.7.8-5.6 7.3-11.1 14.5-5.4 7.1-21.7 28.5-36.2 47.5-14.5 19-32.2 42.1-39.4 51.5C81 433.6 73 444.2 73.1 444.9c0 .3 7.7 6.3 17 13.3l17.1 12.7 10.4-13.7c5.7-7.5 14.9-19.6 20.3-26.7 5.4-7.2 13-17.1 16.8-22 3.8-5 14.9-19.6 24.8-32.5 9.8-12.9 21.5-28.2 25.9-34 4.4-5.8 12.3-16.1 17.5-23 5.3-6.9 9.9-13 10.4-13.5.4-.6 4.2-5.6 8.5-11.2 4.2-5.5 11.9-15.7 17.1-22.5 13.1-17.1 39.5-51.7 46.1-60.4 3-3.9 6.5-8.5 7.7-10 1.2-1.6 7.7-10.2 14.5-19.1 6.8-8.9 16.1-21.1 20.8-27.2 8.1-10.6 13.4-15.3 25.6-22.4.6-.4 5.1.7 10 2.3 4.9 1.7 9.4 2.9 10 2.8.7-.2.2-3.7-1.7-10.2l-2.8-9.9 6.5-8.9 6.5-8.8-3.8-.1c-2.1 0-5.8-.2-8.3-.4-2.5-.1-5.7-.3-7.2-.4-2.3-.1-3.9-1.6-8.4-7.9-3.2-4.2-6-8.1-6.5-8.6-.4-.5-1.5.8-2.3 2.9z"/></svg>