<svg version="1" xmlns="http://www.w3.org/2000/svg" width="206.667" height="206.667" viewBox="0 0 155.000000 155.000000"><path d="M101.6 39.8c-.2.2-1.9.5-3.7.7-3.6.5-15.5 5.2-17.6 7-.7.5-3 2.3-5.2 4-2.1 1.6-4.7 4.2-5.7 5.7-1.1 1.6-2.3 2.4-2.9 1.9-1.8-1.4-8.4-.5-10.5 1.4-1.1 1-3.6 4.3-5.6 7.4-2 3.1-4.5 6.9-5.6 8.5-1.2 1.6-1.5 2.5-.7 2.1.9-.6.8-.2-.2 1.1-.9 1-2.4 3.4-3.3 5.2l-1.7 3.3 2.6-.5c1.4-.3 3.7-1.4 5.1-2.5 1.5-1.2 3.2-2.1 3.9-2.1.7 0 2.4-.9 3.9-2.1 1.4-1.1 2.6-1.7 2.6-1.3 0 .4.9-.1 2-1.1s2.3-1.5 2.6-1.2c.9.8-1.5 3.7-3 3.7-.6.1-3.3 2.4-6.1 5.2-2.7 2.7-4.3 4.7-3.5 4.3.8-.5.6.2-.6 1.6-2.7 3-6.1 10.7-6.8 15.3l-.6 3.4 6.5-1.8c8.3-2.4 16.8-8.1 21.9-14.6 4.1-5.4 7.3-6.6 3.6-1.4-1.1 1.5-2 3.3-2 3.9 0 .6-.4 1.1-1 1.1-.5 0-1 .6-1 1.3 0 .7-1.4 3.5-3 6.1-1.7 2.6-2.5 4.4-1.8 4 .9-.6.9-.3-.1.9-1.2 1.5-1.1 1.7.5 1.7 1.1 0 3-.9 4.4-2 1.4-1.1 2.9-2 3.4-2s4.6-2.3 9-5.1c10.5-6.7 12.8-9.7 11.6-15.3-.6-2.8 0-3.8 5.1-9.3 5.9-6.4 7.8-9.4 11-17.9 2.1-5.6 3.6-15.1 3-20-.1-1-9.6-1.6-10.5-.6z"/></svg>